<svg width="69" height="68" viewBox="0 0 69 68" fill="none" xmlns="http://www.w3.org/2000/svg">
<path d="M39.706 56.5437C35.026 56.5437 30.606 54.7537 27.236 51.4937C23.796 48.1637 21.856 43.6837 21.776 38.8937C21.716 35.2837 22.726 31.7937 24.696 28.7837C24.846 28.5537 25.146 28.4937 25.376 28.6437C25.606 28.7937 25.666 29.0937 25.516 29.3237C23.656 32.1637 22.696 35.4737 22.756 38.8837C22.826 43.4137 24.666 47.6437 27.916 50.7937C31.166 53.9437 35.446 55.6337 39.986 55.5637C49.336 55.4137 56.816 47.6837 56.666 38.3337C56.516 28.9837 48.776 21.4937 39.436 21.6537C36.066 21.7137 32.816 22.7537 30.056 24.6637C29.836 24.8137 29.526 24.7637 29.376 24.5437C29.226 24.3237 29.276 24.0137 29.496 23.8637C32.416 21.8337 35.846 20.7337 39.416 20.6737C39.516 20.6737 39.616 20.6737 39.716 20.6737C49.476 20.6737 57.486 28.5337 57.646 38.3237C57.806 48.2137 49.896 56.3937 40.006 56.5537C39.906 56.5537 39.806 56.5537 39.706 56.5537V56.5437Z" fill="black"/>
<path d="M39.7057 67.3737C24.0557 67.3737 11.2057 54.7737 10.9457 39.0737C10.8357 32.5937 12.8457 26.4437 16.7457 21.2837C16.9057 21.0637 17.2157 21.0237 17.4357 21.1837C17.6557 21.3437 17.6957 21.6537 17.5357 21.8737C13.7757 26.8537 11.8357 32.8037 11.9357 39.0637C12.1857 54.2337 24.6057 66.3937 39.7157 66.4037C39.8657 66.4037 40.0257 66.4037 40.1757 66.4037C55.4957 66.1537 67.7557 53.4837 67.5057 38.1637C67.3857 30.7437 64.3857 23.8137 59.0457 18.6537C53.7157 13.4937 46.6857 10.7137 39.2657 10.8337C32.9857 10.9337 27.0857 13.0837 22.2157 17.0337C22.0057 17.2037 21.6957 17.1737 21.5257 16.9637C21.3557 16.7537 21.3857 16.4437 21.5957 16.2737C26.6357 12.1837 32.7357 9.96371 39.2457 9.85371C46.9157 9.73371 54.1957 12.6037 59.7257 17.9437C65.2457 23.2837 68.3557 30.4637 68.4857 38.1437C68.7457 54.0037 56.0557 67.1137 40.1957 67.3737C40.0357 67.3737 39.8757 67.3737 39.7157 67.3737H39.7057Z" fill="black"/>
<path d="M47.2856 38.4838C47.2156 34.3038 43.7756 30.9638 39.5956 31.0338C35.4156 31.1038 32.0756 34.5438 32.1456 38.7238C32.2156 42.9038 35.6556 46.2438 39.8356 46.1738C44.0156 46.1038 47.3556 42.6638 47.2856 38.4838Z" fill="#6371FB"/>
<path d="M39.7155 46.6638C37.6155 46.6638 35.6255 45.8638 34.1155 44.3938C32.5655 42.8938 31.6955 40.8838 31.6655 38.7338C31.6255 36.5838 32.4355 34.5438 33.9355 32.9938C35.4355 31.4438 37.4455 30.5738 39.5955 30.5438C41.7555 30.5138 43.7855 31.3138 45.3355 32.8138C46.8855 34.3138 47.7555 36.3238 47.7855 38.4738C47.8255 40.6238 47.0155 42.6638 45.5155 44.2138C44.0155 45.7638 42.0055 46.6338 39.8555 46.6638C39.8155 46.6638 39.7655 46.6638 39.7255 46.6638H39.7155ZM39.7155 31.5238C39.7155 31.5238 39.6355 31.5238 39.5955 31.5238C37.7055 31.5538 35.9355 32.3238 34.6255 33.6838C33.3055 35.0438 32.6055 36.8338 32.6355 38.7238C32.6955 42.6238 35.9255 45.7538 39.8355 45.6938C41.7255 45.6638 43.4955 44.8938 44.8055 43.5338C46.1255 42.1738 46.8255 40.3838 46.7955 38.4938C46.7355 34.6238 43.5655 31.5238 39.7155 31.5238Z" fill="black"/>
<path d="M39.7187 39.0937C39.5987 39.0937 39.4687 39.0437 39.3787 38.9537L7.51869 8.11372C7.32869 7.92372 7.31869 7.61372 7.50869 7.42372C7.69869 7.23372 8.00869 7.22372 8.19869 7.41372L40.0587 38.2537C40.2487 38.4437 40.2587 38.7537 40.0687 38.9437C39.9687 39.0437 39.8487 39.0937 39.7187 39.0937Z" fill="black"/>
<path d="M15.7583 15.5437L7.79828 7.83374L0.488281 8.69374L8.44828 16.4037L15.7583 15.5437Z" fill="black"/>
<path d="M8.447 16.8937C8.317 16.8937 8.197 16.8437 8.107 16.7537L0.147 9.04371C0.007 8.91371 -0.033 8.7137 0.027 8.5337C0.087 8.3537 0.247 8.2237 0.437 8.2037L7.747 7.3437C7.897 7.3237 8.037 7.37371 8.147 7.47371L16.107 15.1837C16.247 15.3137 16.287 15.5137 16.227 15.6937C16.167 15.8737 16.007 16.0037 15.817 16.0237L8.507 16.8837C8.507 16.8837 8.467 16.8837 8.447 16.8837V16.8937ZM1.567 9.0637L8.617 15.8937L14.667 15.1837L7.617 8.35371L1.567 9.0637Z" fill="black"/>
<path d="M15.8194 15.4738L7.85938 7.76379L8.41937 0.503784L16.3794 8.20378L15.8194 15.4738Z" fill="black"/>
<path d="M15.8183 15.9637C15.6983 15.9637 15.5683 15.9137 15.4783 15.8237L7.51827 8.11374C7.41827 8.01374 7.35827 7.87374 7.36827 7.72374L7.92827 0.453736C7.93827 0.263736 8.06827 0.103738 8.23827 0.0337383C8.41827 -0.0362617 8.61827 0.00373888 8.74827 0.143739L16.7083 7.85375C16.8083 7.95375 16.8683 8.09375 16.8583 8.24374L16.2983 15.5137C16.2883 15.7037 16.1583 15.8637 15.9883 15.9337C15.9283 15.9537 15.8683 15.9637 15.8183 15.9637ZM8.36827 7.57375L15.4183 14.3937L15.8783 8.39374L8.82827 1.57375L8.36827 7.57375Z" fill="black"/>
</svg>
