<svg width="22" height="20" viewBox="0 0 22 20" fill="none" xmlns="http://www.w3.org/2000/svg">
<path d="M20.9999 9.99949H7.47463M2.70054 9.99949H0.747559M2.70054 9.99949C2.70054 9.40733 2.95198 8.83943 3.39953 8.42072C3.84709 8.002 4.4541 7.76677 5.08704 7.76677C5.71998 7.76677 6.32699 8.002 6.77455 8.42072C7.2221 8.83943 7.47353 9.40733 7.47353 9.99949C7.47353 10.5916 7.2221 11.1595 6.77455 11.5783C6.32699 11.997 5.71998 12.2322 5.08704 12.2322C4.4541 12.2322 3.84709 11.997 3.39953 11.5783C2.95198 11.1595 2.70054 10.5916 2.70054 9.99949ZM20.9999 16.7663H14.7075M14.7075 16.7663C14.7075 17.3585 14.4554 17.9271 14.0078 18.3459C13.5601 18.7647 12.953 19 12.3199 19C11.6869 19 11.0799 18.7637 10.6324 18.345C10.1848 17.9263 9.93337 17.3584 9.93337 16.7663M14.7075 16.7663C14.7075 16.174 14.4554 15.6065 14.0078 15.1876C13.5601 14.7688 12.953 14.5335 12.3199 14.5335C11.6869 14.5335 11.0799 14.7688 10.6324 15.1875C10.1848 15.6062 9.93337 16.1741 9.93337 16.7663M9.93337 16.7663H0.747559M20.9999 3.23272H17.6008M12.8267 3.23272H0.747559M12.8267 3.23272C12.8267 2.64056 13.0782 2.07266 13.5257 1.65395C13.9733 1.23523 14.5803 1 15.2132 1C15.5266 1 15.8369 1.05775 16.1265 1.16996C16.416 1.28216 16.6791 1.44662 16.9007 1.65395C17.1223 1.86127 17.2981 2.10741 17.4181 2.37829C17.538 2.64918 17.5997 2.93951 17.5997 3.23272C17.5997 3.52592 17.538 3.81626 17.4181 4.08714C17.2981 4.35803 17.1223 4.60416 16.9007 4.81149C16.6791 5.01881 16.416 5.18327 16.1265 5.29548C15.8369 5.40768 15.5266 5.46543 15.2132 5.46543C14.5803 5.46543 13.9733 5.2302 13.5257 4.81149C13.0782 4.39277 12.8267 3.82487 12.8267 3.23272Z" stroke="#454545" stroke-width="1.5" stroke-miterlimit="10" stroke-linecap="round"/>
</svg>
