<svg width="156" height="188" viewBox="0 0 156 188" fill="none" xmlns="http://www.w3.org/2000/svg">
<path d="M35.9906 188C34.1885 188 32.8658 187.533 32.0588 186.592C28.9825 183 34.2856 174.057 39.2793 167.182C46.1601 157.716 57.0091 145.902 69.8301 133.913C69.9514 133.804 70.1395 133.81 70.2487 133.925C70.3579 134.046 70.3519 134.234 70.2366 134.344C43.8058 159.057 27.9388 180.864 32.5139 186.198C35.0684 189.177 44.0485 186.604 57.1486 179.135C70.5643 171.49 86.9227 159.591 103.208 145.636C119.494 131.68 133.759 117.336 143.364 105.249C152.751 93.4474 156.665 84.9648 154.11 81.9856C151.531 78.976 142.424 81.6215 129.129 89.2425C128.99 89.3214 128.808 89.2729 128.723 89.1333C128.644 88.9938 128.693 88.8117 128.832 88.7268C142.6 80.8327 151.738 78.3025 154.559 81.5973C157.356 84.8617 153.546 93.3928 143.825 105.613C134.196 117.73 119.907 132.099 103.591 146.078C87.2746 160.058 70.8858 171.981 57.4399 179.645C47.7862 185.148 40.4322 187.982 35.9906 187.982V188Z" fill="black"/>
<path d="M77.4661 43.8135C78.5583 48.5099 78.3581 54.3045 78.3581 54.3045L74.1046 55.9549C74.1046 55.9549 71.4955 66.6765 87.9329 63.3939C91.1245 62.7568 100.372 55.7365 100.372 55.7365L93.06 53.6492C93.06 53.6492 92.3623 43.0247 92.0831 37.7458C88.2423 39.5358 82.0775 42.3816 77.4661 43.8196V43.8135Z" fill="white"/>
<path d="M82.3266 64.3163C79.1532 64.3163 76.8111 63.5457 75.3367 62.0106C72.9581 59.535 73.7773 56.034 73.8137 55.8823C73.838 55.7852 73.9047 55.7124 73.9957 55.676L78.0671 54.0984C78.0914 53.0487 78.1399 48.0004 77.1752 43.8743C77.1388 43.7227 77.2298 43.571 77.3754 43.5224C82.1446 42.0358 88.7705 38.9474 91.956 37.4669C92.0471 37.4244 92.1502 37.4305 92.2351 37.479C92.3201 37.5276 92.3747 37.6186 92.3808 37.7157C92.6356 42.5273 93.2485 51.8958 93.3455 53.4067L100.457 55.4393C100.566 55.4697 100.645 55.5607 100.669 55.6699C100.687 55.7791 100.645 55.8944 100.56 55.9612C100.178 56.2524 91.2219 63.03 87.9999 63.6732C85.8884 64.0979 83.9952 64.3042 82.3327 64.3042L82.3266 64.3163ZM74.3659 56.1735C74.2445 56.841 73.8804 59.6382 75.7735 61.6041C77.8669 63.7824 81.9383 64.286 87.8786 63.1028C90.5605 62.5688 97.7871 57.29 99.7166 55.858L92.9815 53.9345C92.8601 53.8981 92.7752 53.795 92.7691 53.6676C92.763 53.5644 92.1017 43.5467 91.8104 38.195C88.546 39.7119 82.4055 42.5455 77.8184 44.0139C78.8438 48.6435 78.6618 54.2622 78.6557 54.3168C78.6557 54.4382 78.5768 54.5413 78.4676 54.5838L74.3659 56.1796V56.1735Z" fill="black"/>
<path d="M67.3974 14.2461C65.8987 14.6041 64.4 13.0872 64.3697 11.4793C64.3393 9.87135 65.4679 8.4151 66.8513 7.71125C68.2348 7.0074 69.8306 6.92246 71.3899 6.70402C70.8014 5.14463 71.5477 3.26972 72.8401 2.27462C74.1325 1.27952 75.8436 1.03681 77.4394 1.23704C78.4831 1.36447 79.5388 1.67998 80.364 2.35956C81.1892 3.03914 81.7535 4.13739 81.705 5.30845C83.0945 3.5549 85.3456 2.3717 87.4632 2.88138C89.5808 3.39107 91.1827 5.9759 91.3405 7.75979C92.372 6.49165 93.719 5.45408 95.3087 5.53903C98.4579 5.70892 99.1738 8.39083 97.754 11.8373C99.4347 11.0121 101.935 11.7341 102.729 14.1733C103.324 15.9876 102.657 18.8758 101.395 20.2956C101.176 20.5444 100.855 20.781 100.466 20.9995C99.9748 23.6935 99.3619 26.515 98.4336 30.0767C97.7661 32.6494 96.6011 35.4951 95.2359 37.8373C94.5927 38.9416 94.0952 39.4755 92.8028 40.0762C92.73 38.9598 91.571 38.4076 91.389 37.2972C91.1645 35.932 92.0443 34.7306 91.2252 33.5231C89.6597 31.2174 88.5918 28.6933 88.0882 26.1024C87.6756 23.9726 87.6634 21.7337 88.6646 19.7738C89.0226 19.076 89.5323 18.4207 90.1512 17.8503C89.8721 17.2982 89.6597 16.7339 89.4838 16.1817C88.5615 17.7654 87.888 18.8576 85.5762 19.616C83.8894 20.1682 81.881 19.5007 81.3167 17.8867C80.9587 19.5129 78.4345 21.8004 76.8448 21.9642C75.2611 22.128 74.6604 21.3939 74.0233 19.8709C72.6156 21.1208 71.5598 22.389 70.1218 22.935C67.9253 23.7663 65.207 22.395 64.4789 20.0832C63.7508 17.7715 65.1524 14.9621 67.3913 14.2583L67.3974 14.2461Z" fill="#0D72D6"/>
<path d="M92.8045 40.3615C92.7499 40.3615 92.7013 40.3494 92.6528 40.319C92.5679 40.2705 92.5132 40.1795 92.5072 40.0824C92.4768 39.5909 92.1795 39.2086 91.864 38.8021C91.5364 38.3774 91.1966 37.9344 91.0934 37.3277C90.9963 36.733 91.0934 36.193 91.1723 35.6651C91.2936 34.9309 91.3968 34.2999 90.9721 33.6689C89.3702 31.3207 88.3023 28.7844 87.7926 26.1389C87.289 23.5298 87.4892 21.4 88.3994 19.6161C88.7391 18.9547 89.2185 18.3176 89.7889 17.7655C89.6554 17.4803 89.5279 17.183 89.4127 16.8675C88.6421 18.1477 87.829 19.1671 85.6689 19.877C83.9821 20.4292 82.2043 19.871 81.3609 18.615C80.5781 20.2472 78.3938 22.0857 76.8768 22.2374C75.2689 22.4012 74.5529 21.7034 73.9219 20.3442C73.6853 20.5627 73.4607 20.775 73.2362 20.9874C72.2775 21.8976 71.3674 22.7592 70.2328 23.19C69.1345 23.6087 67.8481 23.5237 66.6953 22.9655C65.4878 22.383 64.5777 21.3515 64.2015 20.144C63.5462 18.0567 64.4867 15.6357 66.2281 14.4647C65.9308 14.3676 65.6395 14.2159 65.3665 14.0035C64.5837 13.3968 64.0862 12.4259 64.068 11.4672C64.0316 9.62873 65.3725 8.11181 66.7135 7.43223C67.8906 6.83153 69.2073 6.66771 70.4815 6.50388C70.6514 6.47961 70.8274 6.4614 70.9973 6.43713C70.615 4.91415 71.2825 3.07564 72.6537 2.01987C73.8734 1.07938 75.5844 0.684979 77.4715 0.921618C78.7457 1.07938 79.7833 1.47984 80.5478 2.11088C81.3063 2.73585 81.7977 3.6096 81.9494 4.55009C83.5331 2.89361 85.6568 2.12302 87.5256 2.57203C89.4916 3.0453 91.0813 5.18113 91.5242 7.06817C92.7256 5.76969 93.9998 5.15685 95.3165 5.2236C96.6453 5.29641 97.6465 5.8061 98.2108 6.69804C98.9025 7.79629 98.9146 9.41636 98.2533 11.3095C99.0421 11.1032 99.9219 11.1639 100.711 11.4976C101.797 11.9526 102.61 12.8628 102.998 14.0521C103.617 15.9391 102.962 18.9365 101.603 20.4656C101.384 20.7083 101.087 20.9449 100.723 21.1634C100.195 24.0273 99.5578 26.8791 98.7083 30.1253C98.0227 32.7648 96.8456 35.6166 95.4803 37.9587C94.8372 39.063 94.3153 39.6637 92.9198 40.319C92.8773 40.3372 92.8348 40.3494 92.7924 40.3494L92.8045 40.3615ZM89.4915 15.8724C89.4915 15.8724 89.5158 15.8724 89.5219 15.8724C89.6372 15.8845 89.7342 15.9634 89.7707 16.0787C89.9648 16.6794 90.1772 17.2133 90.4199 17.7048C90.4806 17.8262 90.4502 17.9657 90.3531 18.0567C89.7585 18.5968 89.267 19.2278 88.9273 19.8952C88.0778 21.5578 87.8957 23.5662 88.3751 26.0357C88.8726 28.6023 89.9102 31.0598 91.4635 33.3473C92.0278 34.1725 91.8883 34.9855 91.7608 35.7743C91.682 36.2537 91.597 36.7452 91.682 37.2427C91.7548 37.7039 92.04 38.0619 92.3373 38.4502C92.6164 38.8082 92.8955 39.1722 93.029 39.6334C94.0302 39.1116 94.4488 38.6019 94.9767 37.6857C96.3116 35.386 97.4645 32.5827 98.1441 29.9979C98.9996 26.7153 99.6428 23.8392 100.171 20.9449C100.189 20.86 100.243 20.7811 100.316 20.7386C100.68 20.5384 100.972 20.3139 101.166 20.0955C102.385 18.7242 102.992 15.9452 102.44 14.2644C102.106 13.239 101.408 12.4623 100.486 12.0679C99.6306 11.7099 98.6537 11.7221 97.8771 12.1043C97.7679 12.159 97.6344 12.1407 97.5433 12.0558C97.4523 11.9709 97.422 11.8374 97.4705 11.7281C98.2836 9.75008 98.3686 8.08754 97.7072 7.0439C97.246 6.30971 96.4269 5.90318 95.2862 5.8425C94.018 5.77576 92.762 6.48567 91.5667 7.95405C91.4878 8.04507 91.3665 8.08754 91.2512 8.05114C91.1359 8.01473 91.0509 7.91158 91.0449 7.79629C90.8992 6.20049 89.443 3.67027 87.3921 3.17879C85.5476 2.73585 83.4057 3.646 81.9373 5.50271C81.8584 5.60586 81.7249 5.64227 81.6036 5.59373C81.4822 5.55125 81.4033 5.4299 81.4094 5.30248C81.4458 4.28918 80.9725 3.2516 80.1716 2.59023C79.492 2.032 78.5576 1.67401 77.3987 1.52839C75.6694 1.31602 74.1161 1.66187 73.0178 2.51135C71.7375 3.49431 71.1611 5.25394 71.6647 6.60096C71.6951 6.68591 71.689 6.77692 71.6404 6.8558C71.5919 6.93468 71.5191 6.98322 71.4281 7.00143C71.1368 7.0439 70.8456 7.08031 70.5543 7.11671C69.2741 7.28054 68.0666 7.43223 66.9805 7.98439C65.8033 8.58509 64.6323 9.89571 64.6626 11.4794C64.6747 12.2621 65.0874 13.063 65.7305 13.5606C66.2281 13.9489 66.7984 14.0945 67.3263 13.9671C67.4841 13.9307 67.6418 14.0217 67.6843 14.1795C67.7268 14.3312 67.6418 14.495 67.4902 14.5435C65.415 15.1989 64.0983 17.8504 64.7718 19.9984C65.1056 21.0481 65.9004 21.9522 66.9562 22.4619C67.9574 22.9473 69.0738 23.0201 70.0204 22.6621C71.0458 22.2738 71.871 21.491 72.8236 20.5809C73.1452 20.2775 73.4729 19.962 73.8248 19.6525C73.8976 19.5919 73.9947 19.5615 74.0857 19.5858C74.1767 19.604 74.2556 19.6707 74.292 19.7617C74.8927 21.1998 75.4024 21.8187 76.8101 21.6731C78.2846 21.5214 80.6874 19.3309 81.0211 17.8262C81.0514 17.6987 81.1606 17.6017 81.2941 17.5956C81.4276 17.5895 81.5489 17.6684 81.5914 17.7958C82.1254 19.3067 84.0306 19.8164 85.4808 19.337C87.738 18.5968 88.363 17.5228 89.2246 16.0362C89.2792 15.9452 89.3762 15.8906 89.4794 15.8906L89.4915 15.8724Z" fill="black"/>
<path d="M69.8299 23.2684C69.8299 23.1895 69.8299 23.1045 69.8299 23.0196C69.927 22.9893 70.024 22.9589 70.1211 22.9225C71.5591 22.3764 72.6149 21.1022 74.0226 19.8583C74.6597 21.3813 75.2544 22.1094 76.8441 21.9517C78.4278 21.7879 80.9519 19.5003 81.316 17.8742C81.8863 19.4821 83.8887 20.1557 85.5755 19.6035C87.8873 18.845 88.5608 17.7529 89.4831 16.1692C89.9867 17.7589 90.8058 19.4457 92.5412 20.6835C93.1783 21.1386 93.8639 21.4481 94.5738 21.6422C94.5981 21.9517 94.6284 22.2551 94.6588 22.5463C94.7801 23.6142 95.0592 25.9321 94.8105 28.2803C96.6126 26.7876 98.0992 27.0364 99.2156 28.165C100.332 29.2936 100.241 31.0835 99.1489 32.1939C98.0567 33.3043 96.1332 33.729 94.4464 33.371C94.0095 36.2107 93.3542 41.9022 91.3822 44.4203C89.2828 47.0961 85.5694 48.8072 81.7286 48.874C77.8877 48.9346 74.0226 47.351 71.6805 44.7479C69.0229 41.793 68.4282 37.8793 68.6527 34.2145C68.8772 30.5496 69.8177 26.9332 69.8299 23.2623V23.2684Z" fill="white"/>
<path d="M81.5115 49.1776C77.6524 49.1776 73.8237 47.5696 71.4695 44.9545C69.1334 42.3575 68.0898 38.7412 68.3628 34.2086C68.4599 32.6007 68.6965 30.9806 68.9271 29.4152C69.2244 27.4068 69.5278 25.3255 69.5339 23.2747C69.5339 23.1897 69.5339 23.1048 69.5339 23.0198C69.5339 22.8863 69.6249 22.7771 69.7462 22.7407C69.8373 22.7164 69.9222 22.6861 70.0132 22.6558C71.0387 22.2674 71.8639 21.4847 72.8165 20.5745C73.1381 20.2712 73.4657 19.9556 73.8176 19.6462C73.8905 19.5855 73.9875 19.5552 74.0786 19.5795C74.1696 19.5977 74.2485 19.6644 74.2849 19.7554C74.8856 21.1935 75.3952 21.8124 76.8029 21.6667C78.2774 21.515 80.6802 19.3246 81.0139 17.8198C81.0443 17.6924 81.1535 17.5953 81.2869 17.5893C81.4204 17.5832 81.5418 17.6621 81.5843 17.7895C82.1182 19.3003 84.0235 19.81 85.4737 19.3307C87.7308 18.5904 88.3558 17.5164 89.2174 16.0299C89.2781 15.9267 89.3873 15.8721 89.5087 15.8842C89.6239 15.8964 89.721 15.9753 89.7574 16.0905C90.1579 17.3465 90.8921 19.1608 92.7063 20.4532C93.2767 20.8597 93.932 21.1692 94.648 21.3694C94.7693 21.3998 94.8543 21.509 94.8664 21.6303C94.8967 21.9823 94.921 22.2674 94.9514 22.5223V22.5951C95.0727 23.5963 95.2972 25.5682 95.1577 27.6616C96.7049 26.6362 98.2036 26.7393 99.4232 27.9771C100.631 29.2028 100.6 31.1566 99.3565 32.4247C98.2947 33.5048 96.4501 34.0145 94.6905 33.7414C94.6601 33.9477 94.6298 34.1661 94.5934 34.3967C94.1322 37.5458 93.4344 42.309 91.6141 44.6268C89.454 47.3755 85.6678 49.129 81.7299 49.1897C81.651 49.1897 81.5782 49.1897 81.4993 49.1897L81.5115 49.1776ZM70.1285 23.2686C70.1224 25.3619 69.813 27.4614 69.5157 29.494C69.2851 31.0474 69.0485 32.6553 68.9514 34.239C68.6844 38.6077 69.6795 42.0784 71.9063 44.554C74.1514 47.0539 77.8163 48.5829 81.5115 48.5829C81.5843 48.5829 81.6571 48.5829 81.7299 48.5829C85.4919 48.5223 89.1021 46.8597 91.153 44.2445C92.8762 42.048 93.5861 37.1939 94.0169 34.2936C94.0655 33.9477 94.114 33.6261 94.1626 33.3288C94.1747 33.2499 94.2172 33.1771 94.29 33.1286C94.3567 33.08 94.4417 33.0679 94.5206 33.08C96.1831 33.432 97.9609 32.989 98.95 31.9878C99.9693 30.9503 99.9997 29.3666 99.0167 28.3776C97.8699 27.2126 96.5168 27.2611 95.012 28.5111C94.921 28.5899 94.7875 28.6021 94.6844 28.5414C94.5752 28.4868 94.5145 28.3715 94.5266 28.2502C94.7633 25.9869 94.5084 23.7358 94.3871 22.6497V22.5769C94.3567 22.3645 94.3325 22.1339 94.3082 21.867C93.6043 21.6485 92.9551 21.333 92.3847 20.9204C90.7161 19.7251 89.897 18.1414 89.4237 16.8672C88.6531 18.1475 87.84 19.1668 85.68 19.8768C83.9931 20.4289 82.2153 19.8707 81.3719 18.6147C80.5892 20.2469 78.4048 22.0854 76.8879 22.2371C75.2799 22.4009 74.564 21.7031 73.9329 20.344C73.6963 20.5624 73.4718 20.7748 73.2473 20.9872C72.2886 21.8973 71.3784 22.7589 70.2438 23.1897C70.2135 23.2019 70.177 23.214 70.1406 23.2261C70.1406 23.2383 70.1406 23.2504 70.1406 23.2565L70.1285 23.2686Z" fill="black"/>
<path d="M73.2429 28.5902C73.1944 28.1412 73.5341 27.7286 74.0135 27.674C74.4928 27.6194 74.9176 27.941 74.9722 28.3961C75.0207 28.8451 74.6809 29.2577 74.2016 29.3123C73.7222 29.3669 73.2975 29.0453 73.2429 28.5902Z" fill="black"/>
<path d="M85.3562 29.2394C85.3076 28.7904 85.6474 28.3778 86.1268 28.3232C86.6061 28.2686 87.0309 28.5902 87.0855 29.0452C87.134 29.4942 86.7942 29.9068 86.3149 29.9615C85.8355 30.0161 85.4108 29.6945 85.3562 29.2394Z" fill="black"/>
<path d="M81.7568 43.4497C81.3806 43.4497 81.0105 43.4012 80.6403 43.3041C80.4826 43.2616 80.3855 43.0978 80.428 42.94C80.4704 42.7823 80.6343 42.6852 80.792 42.7277C82.2179 43.1039 83.8137 42.6063 84.7724 41.4899C84.8816 41.3625 85.0697 41.3503 85.1911 41.4595C85.3185 41.5688 85.3306 41.7508 85.2214 41.8782C84.3659 42.8794 83.0613 43.4497 81.7507 43.4497H81.7568Z" fill="black"/>
<path d="M79.6949 38.8933C79.1185 38.8933 78.5057 38.778 77.8685 38.5474C77.5288 38.4261 77.1465 38.2562 76.8674 37.9406C76.5094 37.5341 76.388 36.9273 76.5215 36.2842C76.6186 35.8291 76.8188 35.4226 77.013 35.0221L77.104 34.8461C78.1477 32.7103 78.6937 30.3196 78.6816 27.9411C78.6816 27.7773 78.8151 27.6438 78.9789 27.6438C79.1428 27.6438 79.2763 27.7773 79.2763 27.9411C79.2884 30.4107 78.7241 32.8923 77.638 35.107L77.547 35.2891C77.3589 35.6653 77.1829 36.0233 77.104 36.4055C77.0069 36.8606 77.0858 37.2914 77.3164 37.5523C77.5045 37.7707 77.8018 37.8982 78.0688 37.9892C78.8454 38.2683 79.5736 38.3593 80.2167 38.2622C80.9509 38.1469 81.6062 37.7647 81.9642 37.2307C82.0552 37.0972 82.2373 37.0608 82.3768 37.1518C82.5103 37.2429 82.5467 37.4249 82.4557 37.5644C82.0006 38.244 81.2179 38.7173 80.3077 38.8569C80.1075 38.8872 79.9073 38.9054 79.6949 38.9054V38.8933Z" fill="black"/>
<path d="M94.6265 30.4469C94.6265 30.4469 94.6022 30.4469 94.5901 30.4469C94.4263 30.4226 94.311 30.277 94.3353 30.1132C94.4687 29.112 94.5173 28.5841 94.6022 27.6133C94.6144 27.4494 94.76 27.3281 94.9238 27.3463C95.0877 27.3584 95.209 27.504 95.1908 27.6679C95.0998 28.6448 95.0513 29.1787 94.9178 30.192C94.8996 30.3437 94.7721 30.4529 94.6265 30.4529V30.4469Z" fill="black"/>
<path d="M66.7251 20.8298C66.7251 20.8298 66.6705 20.8177 66.6523 20.7995C65.8331 19.9561 65.5297 18.6394 65.9059 17.523C65.9241 17.4683 65.9788 17.4441 66.0334 17.4623C66.088 17.4805 66.1122 17.5351 66.094 17.5897C65.7421 18.6394 66.0273 19.8711 66.7979 20.666C66.8343 20.7024 66.8343 20.7692 66.7979 20.8056C66.7797 20.8238 66.7554 20.8359 66.7311 20.8359L66.7251 20.8298Z" fill="black"/>
<path d="M98.777 19.6948C98.777 19.6948 98.7223 19.6826 98.7041 19.6584C98.6677 19.6159 98.6738 19.5552 98.7102 19.5188C100.094 18.2992 100.634 16.2301 100.027 14.4887C100.009 14.4402 100.039 14.3795 100.088 14.3613C100.136 14.3431 100.197 14.3734 100.215 14.422C100.846 16.2362 100.282 18.3963 98.8437 19.6705C98.8255 19.6887 98.8012 19.6948 98.777 19.6948Z" fill="black"/>
<path d="M20.6122 79.6314C16.9776 71.2762 12.7242 55.9068 8.41612 47.7397C5.63712 45.968 2.48193 42.8492 0.849728 39.7547C0.188352 38.4987 0.0852008 37.9465 0.782983 36.8543C1.29874 36.0534 2.49408 36.0291 3.31321 36.3204C2.80353 35.5498 1.83269 34.9551 2.70037 33.8751C3.0887 33.3897 3.71367 33.0438 4.30224 33.2623C3.66513 31.6179 5.36408 30.2041 6.77785 31.624C5.52184 29.6945 4.37505 27.9652 3.11904 26.1995C2.34238 25.1073 1.53538 23.7724 2.18462 23.1232C3.0159 22.2919 4.28403 23.4266 5.78882 25.2226C8.36151 28.2928 9.21099 29.3183 11.905 32.0123C14.4413 34.5486 17.1414 39.6212 16.0857 41.9269C16.9291 45.434 29.7501 65.785 33.9489 69.9899C35.484 71.525 34.228 72.9995 33.87 75.1413C33.4332 77.7262 31.5461 86.8277 24.9869 83.8667C23.1242 83.0293 20.8367 80.135 20.6182 79.6375L20.6122 79.6314Z" fill="white"/>
<path d="M27.4214 84.7464C26.6144 84.7464 25.7589 84.5401 24.8548 84.1336C22.901 83.2538 20.5831 80.317 20.3404 79.7527C18.8296 76.2759 17.2277 71.6402 15.5287 66.7254C13.1502 59.8325 10.6867 52.7091 8.18687 47.952C5.64451 46.3138 2.32549 43.2071 0.584072 39.9002C-0.131914 38.5471 -0.235071 37.8979 0.529456 36.7026C0.954193 36.0412 1.77334 35.8106 2.57427 35.8713C2.13133 35.3191 1.71265 34.6335 2.46505 33.6991C2.86551 33.2015 3.38734 32.9224 3.89095 32.9103C3.7696 32.1457 4.05478 31.4115 4.66155 31.0111C4.97707 30.8048 5.39573 30.6895 5.85687 30.7805C4.92852 29.3607 3.93342 27.8741 2.86551 26.3754C1.9675 25.1133 1.16049 23.7177 1.96143 22.9168C2.21627 22.662 2.51966 22.5345 2.86551 22.5527C3.64824 22.5891 4.55233 23.3051 6.0025 25.0405L6.06318 25.1133C8.58733 28.1289 9.44287 29.1483 12.1066 31.812C14.5701 34.2755 17.4219 39.4087 16.3904 41.9632C17.3794 45.5007 29.8727 65.5119 34.1504 69.7896C35.3822 71.0213 34.9939 72.2591 34.5813 73.5758C34.4235 74.0916 34.2536 74.6195 34.1565 75.202C33.7014 77.896 32.5 82.6531 29.5329 84.2367C28.8776 84.5886 28.1738 84.7585 27.4275 84.7585L27.4214 84.7464ZM2.31943 36.4538C1.79154 36.4538 1.28185 36.6237 1.02701 37.0181C0.402039 37.995 0.474854 38.4258 1.10589 39.6211C2.81091 42.8612 6.08745 45.9072 8.56913 47.4909C8.6116 47.5212 8.648 47.5576 8.67227 47.6001C11.2025 52.3996 13.6842 59.5838 16.087 66.5312C17.7799 71.4279 19.3757 76.0575 20.8804 79.51C21.0746 79.959 23.3136 82.7865 25.0975 83.5875C26.6629 84.2913 28.0585 84.3277 29.2478 83.6906C31.9904 82.2283 33.1311 77.6715 33.568 75.0806C33.6711 74.4556 33.8531 73.8853 34.0109 73.3756C34.4114 72.0892 34.7026 71.1609 33.7257 70.1901C29.6058 66.0701 16.6937 45.7798 15.7836 41.9875C15.7654 41.9208 15.7775 41.854 15.8018 41.7933C16.7483 39.7182 14.3213 34.8519 11.6818 32.2125C8.99993 29.5306 8.14439 28.5112 5.60811 25.4774L5.54743 25.4045C4.74042 24.4458 3.58757 23.1656 2.83517 23.1292C2.65921 23.1231 2.51359 23.1838 2.3801 23.3173C1.82794 23.8694 2.96866 25.4834 3.34486 26.0113C4.67368 27.8802 5.89329 29.7308 7.00974 31.4479C7.09468 31.5754 7.06434 31.7453 6.94906 31.8423C6.8277 31.9394 6.65781 31.9273 6.55466 31.8241C6.03891 31.3084 5.45641 31.187 4.98314 31.4965C4.5766 31.7574 4.27321 32.3884 4.57053 33.153C4.613 33.2622 4.58873 33.3835 4.50378 33.4685C4.41884 33.5534 4.29748 33.5777 4.18826 33.5352C3.73925 33.3653 3.22958 33.6748 2.92619 34.057C2.42258 34.6881 2.66528 35.04 3.17496 35.6528C3.30845 35.8106 3.44194 35.9744 3.55723 36.1504C3.63004 36.2596 3.62397 36.3992 3.54509 36.4963C3.46621 36.5994 3.33272 36.6358 3.21137 36.5933C2.93832 36.4963 2.62281 36.4416 2.31943 36.4416V36.4538Z" fill="black"/>
<path d="M5.52796 41.1624C5.34593 41.1624 5.15783 41.126 4.9758 41.0592C4.58747 40.9075 4.27802 40.6406 4.00498 40.3978L2.73683 39.2875C2.61547 39.1782 2.60334 38.9901 2.70649 38.8688C2.81571 38.7474 3.0038 38.7353 3.12516 38.8385L4.39331 39.9488C4.64208 40.1673 4.89692 40.3918 5.1821 40.501C5.45514 40.6041 5.74033 40.5859 5.90415 40.4464C6.11045 40.2765 6.13472 39.9488 6.07405 39.7122C5.9891 39.3967 5.77673 39.1176 5.56436 38.8567C4.7695 37.8858 4.56927 37.7281 3.9807 37.2609C3.76226 37.0849 3.48922 36.8725 3.11303 36.557C2.98561 36.4539 2.97347 36.2658 3.07662 36.1383C3.17977 36.0109 3.36786 35.9988 3.49528 36.1019C3.86541 36.4114 4.13239 36.6238 4.35083 36.7936C4.9576 37.273 5.18817 37.455 6.02551 38.4805C6.26822 38.7778 6.54127 39.1297 6.65048 39.5605C6.79004 40.0823 6.65048 40.6102 6.28642 40.9015C6.08012 41.0714 5.81314 41.1624 5.5219 41.1624H5.52796Z" fill="black"/>
<path d="M7.82853 40.0579C7.54335 40.0579 7.26424 39.9669 7.00333 39.8577C6.68781 39.7302 6.3723 39.5907 6.06284 39.4451C5.91722 39.3783 5.85047 39.1963 5.91722 39.0507C5.98396 38.905 6.16599 38.8383 6.31161 38.9111C6.60893 39.0507 6.91839 39.1842 7.22784 39.3116C7.52515 39.4329 7.8346 39.53 8.04697 39.4208C8.31394 39.2812 8.37462 38.8444 8.29574 38.4803C8.17439 37.916 7.36133 36.6115 4.1758 33.5716L4.08478 33.4866C3.96342 33.3713 3.96343 33.1832 4.07265 33.0679C4.18793 32.9526 4.37602 32.9466 4.49131 33.0558L4.58233 33.1407C7.26424 35.7013 8.66587 37.4063 8.87217 38.3529C8.99959 38.9414 8.87218 39.6574 8.30788 39.9487C8.15012 40.0276 7.98629 40.064 7.82247 40.064L7.82853 40.0579Z" fill="black"/>
<path d="M10.1244 42.2239C10.0152 42.2239 9.912 42.1693 9.86346 42.0661C9.105 40.622 9.74211 39.1476 10.2093 38.0736C10.3853 37.6671 10.6523 37.0542 10.543 36.939C10.1911 36.5628 8.68633 36.4414 7.95821 36.3807C7.55167 36.3443 7.36357 36.3322 7.25435 36.2958C6.44735 36.0288 6.10757 35.598 5.96801 35.2825C5.84666 35.0034 5.82845 34.7061 5.92553 34.4815C6.05902 34.1782 6.57477 33.5168 6.98738 33.3833C7.74583 33.1345 9.55401 33.1891 11.1862 33.2619C11.3986 33.2741 11.5806 33.2801 11.7202 33.2862C12.333 33.3044 14.1351 33.9597 14.3475 34.6818C14.396 34.8395 14.305 35.0034 14.1472 35.0519C13.9895 35.1004 13.8256 35.0094 13.7771 34.8517C13.6922 34.5544 12.2905 33.899 11.702 33.8808C11.5563 33.8808 11.3743 33.8687 11.1619 33.8566C10.0212 33.808 7.89147 33.711 7.17548 33.9537C7.01165 34.0083 6.58085 34.4815 6.47163 34.7303C6.45949 34.7607 6.43522 34.882 6.5141 35.0458C6.58691 35.2157 6.81141 35.5252 7.44245 35.7376C7.50313 35.7558 7.77617 35.78 8.01281 35.7982C9.25669 35.9014 10.5127 36.047 10.9799 36.5446C11.35 36.945 11.0891 37.5518 10.7554 38.3163C10.3125 39.3357 9.7603 40.6038 10.3913 41.7992C10.4702 41.9448 10.4095 42.1208 10.27 42.1996C10.2275 42.2239 10.179 42.236 10.1304 42.236L10.1244 42.2239Z" fill="black"/>
<path d="M8.41015 33.7901C8.307 33.7901 8.20991 33.7355 8.1553 33.6445C7.98541 33.3532 7.45145 32.7768 7.02672 32.3156C6.80221 32.0729 6.58984 31.8424 6.44422 31.6725C6.34107 31.545 6.35321 31.3569 6.48063 31.2538C6.60805 31.1506 6.79614 31.1628 6.89929 31.2902C7.03885 31.454 7.24515 31.6785 7.46965 31.9152C7.94293 32.4248 8.47689 33.0013 8.67712 33.3471C8.76207 33.4867 8.71353 33.6687 8.5679 33.7537C8.51936 33.7779 8.47082 33.7961 8.41621 33.7961L8.41015 33.7901Z" fill="black"/>
<path d="M8.98574 39.0264C8.90686 39.0264 8.83405 39.0203 8.76124 39.0021C8.60348 38.9657 8.50639 38.8019 8.5428 38.6441C8.5792 38.4864 8.74303 38.3893 8.90079 38.4257C9.05855 38.4621 9.31946 38.3832 9.48935 38.1466C9.7442 37.7946 9.68352 37.2546 9.32552 36.6721C9.24058 36.5326 9.28305 36.3505 9.42261 36.2656C9.56217 36.1806 9.7442 36.2231 9.82914 36.3627C10.533 37.4973 10.1629 38.2376 9.96871 38.4985C9.726 38.8322 9.34373 39.0325 8.97967 39.0325L8.98574 39.0264Z" fill="black"/>
<path d="M129.497 92.9436C127.21 80.9357 127.198 68.048 117.526 59.978C112.884 56.1007 101.877 54.4321 95.4273 54.0134C95.0329 60.2571 88.9288 61.7436 85.0152 61.4949C78.4864 61.0762 77.3274 59.7899 75.6649 54.8386C74.2026 55.4211 65.3862 55.8641 59.6584 60.9791C49.0278 70.475 35.1146 68.9945 34.3562 69.753C33.3004 70.8088 35.8974 80.0195 26.5228 84.3639C22.5788 86.1903 46.2063 89.9462 62.4798 85.6382C61.8731 94.1511 66.8486 117.736 68.6143 127.299C85.5855 139.137 118.569 127.008 118.569 127.008C118.569 127.008 115.9 119.15 115.9 113.222C115.9 110.285 126.178 116.365 127.544 116.608C127.999 116.686 129.024 116.316 129.206 115.892C130.353 113.21 131.597 103.987 129.491 92.9376L129.497 92.9436Z" fill="black"/>
<path d="M88.8418 132.766C81.6698 132.766 74.1519 131.522 68.4422 127.542C68.3755 127.499 68.333 127.426 68.3209 127.354C68.0418 125.831 67.6838 123.974 67.2651 121.832C65.0747 110.492 61.786 93.4656 62.1501 86.0327C53.54 88.2292 43.9592 88.0532 38.9715 87.7499C32.7886 87.3737 26.2901 86.3058 25.8168 85.0012C25.744 84.7949 25.7198 84.4066 26.3933 84.0971C33.2679 80.9116 33.5531 75.0138 33.7048 71.8465C33.7655 70.6269 33.7958 69.8927 34.1417 69.5529C34.3783 69.3163 34.9183 69.2677 36.587 69.1464C40.9739 68.8309 51.2586 68.0906 59.4621 60.7608C64.0007 56.7076 70.3172 55.573 73.709 54.9602C74.5767 54.8024 75.2684 54.681 75.5596 54.5658C75.6385 54.5354 75.7174 54.5354 75.7963 54.5718C75.8691 54.6082 75.9298 54.6689 75.954 54.7478C77.5802 59.6141 78.6117 60.7912 85.0373 61.2038C86.1174 61.2705 88.9085 61.2887 91.3963 59.9356C93.702 58.6857 94.958 56.6834 95.1279 54.0015C95.1279 53.9226 95.1704 53.8498 95.231 53.7952C95.2917 53.7406 95.3706 53.7163 95.4434 53.7223C102.961 54.2078 113.307 56.0766 117.712 59.7536C125.654 66.3856 127.183 76.3972 128.664 86.0813C129.004 88.3202 129.362 90.6441 129.786 92.8892C131.801 103.465 130.794 112.943 129.483 116.013C129.234 116.596 128.045 117.002 127.493 116.905C127.098 116.832 126.213 116.414 124.684 115.673C122.153 114.448 117.439 112.172 116.371 112.84C116.292 112.888 116.195 112.979 116.195 113.228C116.195 119.035 118.822 126.838 118.846 126.917C118.901 127.068 118.816 127.238 118.67 127.293C118.586 127.323 110.279 130.351 100 131.892C96.6266 132.396 92.7858 132.772 88.8418 132.772V132.766ZM68.8852 127.123C77.5741 133.106 90.5468 132.699 99.9153 131.298C109.102 129.92 116.692 127.354 118.197 126.826C117.724 125.369 115.606 118.507 115.606 113.222C115.606 112.718 115.855 112.457 116.061 112.33C117.305 111.553 120.818 113.137 124.944 115.133C126.14 115.71 127.268 116.256 127.602 116.316C127.966 116.377 128.834 116.031 128.943 115.776C129.938 113.44 131.394 104.466 129.21 92.9984C128.779 90.7352 128.427 88.4173 128.081 86.1662C126.552 76.1485 125.108 66.689 117.336 60.2026C113.094 56.6652 103.101 54.8327 95.6982 54.3291C95.4434 57.0474 94.06 59.159 91.6814 60.4514C89.0541 61.8773 86.1295 61.8652 85.0009 61.7924C78.5267 61.3798 77.1494 60.0813 75.4868 55.2089C75.1045 55.3121 74.5403 55.4152 73.8182 55.5426C70.481 56.1433 64.2738 57.2598 59.8625 61.1977C51.5074 68.661 41.0892 69.4134 36.6355 69.7289C35.6525 69.8017 34.7242 69.8684 34.5543 69.9716C34.3844 70.1415 34.348 71.0152 34.3055 71.8647C34.1477 75.1594 33.8565 81.2939 26.6542 84.6311C26.4236 84.7403 26.3872 84.8131 26.3872 84.8131C26.5389 85.3713 30.8591 86.6455 38.923 87.1492C47.5148 87.6831 56.0763 87.0278 62.4049 85.3531C62.4959 85.3289 62.5991 85.3531 62.6719 85.4138C62.7447 85.4745 62.7872 85.5655 62.7811 85.6626C62.2714 92.78 65.7664 110.892 67.8598 121.717C68.2663 123.81 68.6121 125.624 68.8913 127.123H68.8852Z" fill="black"/>
<path d="M111.989 103.726C111.861 103.726 111.746 103.647 111.71 103.52C108.245 93.0287 106.285 86.3967 106.285 72.0163C106.285 71.8525 106.419 71.719 106.582 71.719C106.746 71.719 106.88 71.8525 106.88 72.0163C106.88 86.3057 108.828 92.9013 112.274 103.338C112.323 103.495 112.244 103.659 112.086 103.714C112.056 103.726 112.025 103.726 111.995 103.726H111.989Z" fill="black"/>
<path d="M62.4822 85.9356C62.4094 85.9356 62.3426 85.9113 62.282 85.8628C62.106 85.705 62.106 85.5351 62.0696 83.4175C62.0453 81.846 62.0089 79.2126 61.8633 75.2079C61.8633 75.0441 61.9846 74.9045 62.1485 74.8985C62.3123 74.8863 62.4519 75.0198 62.4579 75.1837C62.6035 79.1944 62.646 81.8278 62.6642 83.4053C62.6824 84.54 62.6945 85.3045 62.731 85.4805C62.7977 85.5897 62.7856 85.7353 62.7006 85.8324C62.6399 85.8992 62.5611 85.9295 62.4822 85.9295V85.9356Z" fill="black"/>
<path d="M80.7708 80.0682C74.2542 80.0682 68.3382 79.4917 65.2133 77.902C65.1648 77.8777 65.1466 77.8171 65.1709 77.7685C65.1951 77.72 65.2558 77.7018 65.3044 77.726C71.7482 81.0086 90.2546 79.9347 101.122 78.4117C101.176 78.4056 101.225 78.442 101.231 78.4966C101.237 78.5512 101.201 78.5998 101.146 78.6058C95.4971 79.3946 87.7851 80.0682 80.7648 80.0682H80.7708Z" fill="white"/>
<path d="M87.7246 89.2182C79.0721 89.2182 71.1659 87.8408 65.2317 86.3907C65.1771 86.3785 65.1468 86.3239 65.1589 86.2693C65.171 86.2147 65.2257 86.1844 65.2803 86.1965C74.3818 88.4233 88.1493 90.4742 102.087 87.6224C102.141 87.6103 102.19 87.6467 102.202 87.7013C102.214 87.7559 102.178 87.8044 102.123 87.8166C97.2387 88.8177 92.3724 89.2121 87.7185 89.2121L87.7246 89.2182Z" fill="white"/>
<path d="M130.264 106.608C130.264 106.608 130.209 106.596 130.191 106.572C126.016 101.663 119.22 99.1874 112.868 100.273C112.813 100.286 112.764 100.249 112.752 100.195C112.74 100.14 112.777 100.091 112.831 100.079C119.251 98.9811 126.126 101.481 130.343 106.444C130.379 106.487 130.373 106.547 130.33 106.584C130.312 106.602 130.288 106.608 130.264 106.608Z" fill="white"/>
<path d="M129.498 102.082C129.498 102.082 129.473 102.082 129.461 102.076C128.788 101.803 128.236 101.311 127.708 100.838C127.52 100.674 127.332 100.498 127.137 100.34C125.954 99.3694 124.528 98.7384 123.011 98.5139C122.957 98.5078 122.92 98.4532 122.926 98.3986C122.933 98.344 122.987 98.3076 123.042 98.3136C124.589 98.5442 126.051 99.1874 127.265 100.182C127.459 100.346 127.653 100.516 127.841 100.686C128.357 101.147 128.897 101.627 129.534 101.888C129.583 101.906 129.607 101.966 129.589 102.015C129.571 102.051 129.534 102.076 129.498 102.076V102.082Z" fill="white"/>
<path d="M35.8314 78.9336C35.8314 78.9336 35.8072 78.9336 35.795 78.9275C35.7465 78.9093 35.7222 78.8487 35.7404 78.8001C36.8144 76.1849 37.3362 73.3089 37.2634 70.4813C37.2634 70.4267 37.3059 70.3782 37.3605 70.3782C37.4212 70.3782 37.4576 70.4206 37.4636 70.4753C37.5425 73.3271 37.0086 76.2335 35.9285 78.8729C35.9103 78.9093 35.8739 78.9336 35.8375 78.9336H35.8314Z" fill="white"/>
<path d="M39.7286 73.6669C39.7286 73.6669 39.7165 73.6669 39.7044 73.6669C39.6498 73.6547 39.6194 73.6001 39.6316 73.5516C39.8621 72.5443 39.9228 71.5128 39.8197 70.4874C39.8197 70.4328 39.8561 70.3842 39.9107 70.3782C39.9653 70.3782 40.0138 70.4146 40.0199 70.4692C40.1231 71.5189 40.0563 72.5686 39.8257 73.594C39.8136 73.6426 39.7772 73.6729 39.7286 73.6729V73.6669Z" fill="white"/>
<path d="M112.844 104.351C112.71 104.351 112.595 104.266 112.559 104.133C110.217 95.5105 108.615 86.6517 107.802 77.7929C107.79 77.6291 107.905 77.4835 108.069 77.4713C108.232 77.4592 108.378 77.5745 108.39 77.7383C109.197 86.5607 110.793 95.3892 113.129 103.981C113.172 104.139 113.081 104.303 112.923 104.345C112.899 104.351 112.868 104.357 112.844 104.357V104.351Z" fill="white"/>
<path d="M61.7758 87.5436C61.612 87.5436 61.4785 87.4041 61.4846 87.2402L61.6363 77.447C61.6363 77.2832 61.7697 77.1558 61.9336 77.1558C62.0974 77.1558 62.2309 77.2953 62.2248 77.4591L62.0731 87.2524C62.0731 87.4162 61.9397 87.5436 61.7758 87.5436Z" fill="white"/>
<path d="M82.3321 69.4109L48.5078 76.0225L57.1249 120.107L90.9492 113.496L82.3321 69.4109Z" fill="white"/>
<path d="M57.1266 120.4C57.066 120.4 57.0114 120.382 56.9628 120.352C56.8961 120.309 56.8536 120.242 56.8354 120.163L48.2193 76.0757C48.2072 75.9968 48.2193 75.918 48.2618 75.8512C48.3043 75.7845 48.371 75.742 48.4499 75.7238L82.2711 69.11C82.4289 69.0797 82.5866 69.1828 82.617 69.3467L91.233 113.428C91.2634 113.592 91.1602 113.744 90.9964 113.774L57.1752 120.388C57.1752 120.388 57.1388 120.388 57.1206 120.388L57.1266 120.4ZM48.8564 76.2517L57.3633 119.751L90.602 113.252L82.0951 69.7532L48.8564 76.2517Z" fill="black"/>
<path d="M73.0035 169.736C72.8579 169.736 72.7365 169.633 72.7122 169.487C70.8434 157.777 70.3276 145.733 69.824 134.089C69.7391 132.044 69.6481 129.999 69.551 127.954C69.5449 127.79 69.6723 127.651 69.8362 127.645C70 127.645 70.1395 127.766 70.1456 127.93C70.2427 129.975 70.3276 132.02 70.4187 134.07C70.9162 145.702 71.432 157.722 73.3008 169.403C73.3251 169.566 73.2159 169.718 73.052 169.742C73.0338 169.742 73.0217 169.742 73.0035 169.742V169.736Z" fill="black"/>
<path d="M98.6163 150.199C98.5011 150.199 98.3918 150.132 98.3433 150.016C97.4877 147.972 96.9902 146.552 96.5533 145.296C96.1164 144.04 95.7645 143.033 95.1942 141.843C93.926 142.013 91.232 141.94 89.891 141.904H89.5452C89.3813 141.892 89.2539 141.752 89.2539 141.588C89.2539 141.425 89.3874 141.303 89.5573 141.297L89.9032 141.309C91.3048 141.346 94.2294 141.425 95.3034 141.224C95.4369 141.2 95.5643 141.267 95.625 141.388C96.2621 142.699 96.6383 143.761 97.1055 145.108C97.5424 146.352 98.0338 147.765 98.8833 149.792C98.944 149.944 98.8772 150.12 98.7256 150.18C98.6891 150.199 98.6467 150.205 98.6103 150.205L98.6163 150.199Z" fill="black"/>
<path d="M118.77 132.068C118.643 132.068 118.528 131.989 118.485 131.862C118.394 131.571 118.255 131.182 118.103 130.77C117.696 129.665 117.193 128.294 117.156 127.408C117.15 127.244 117.278 127.105 117.442 127.099C117.605 127.081 117.745 127.22 117.751 127.384C117.788 128.179 118.273 129.502 118.667 130.563C118.819 130.982 118.965 131.376 119.062 131.68C119.11 131.838 119.025 132.001 118.868 132.05C118.837 132.062 118.807 132.062 118.777 132.062L118.77 132.068Z" fill="black"/>
<path d="M123.989 104.994C121.629 104.084 99.039 96.305 95.8899 92.7615C93.8754 90.4982 88.1233 85.9475 86.4789 85.6987C83.7242 85.2861 81.9403 84.6793 79.6225 85.1162C77.6869 85.4803 74.198 87.1671 74.3072 87.8467C74.647 89.9704 79.0643 87.0882 79.5254 87.1003C81.1212 87.1307 82.723 87.2338 84.5373 88.4352C82.5774 89.1634 79.2645 90.7591 78.5667 91.5965C77.8325 92.4824 76.4127 96.2686 76.3095 96.8936C76.1396 97.9736 76.9345 98.7139 77.7658 97.3729C77.8082 97.3001 79.5982 94.8852 80.1018 93.5624C80.302 93.0285 83.6757 91.554 85.3746 91.3356C83.5483 91.3356 80.563 92.7311 80.0836 93.5745C79.9683 93.7748 78.324 97.4397 78.2572 97.7734C77.9781 99.1811 79.2705 99.2418 79.9562 98.2588C80.7329 97.1423 81.4064 95.5223 81.6248 95.2978C82.8383 94.066 84.4887 93.9932 85.7933 93.7262C84.4827 93.8961 82.9779 94.1206 81.6612 95.1946C81.4246 95.3888 79.398 98.4954 80.3991 99.3753C80.9331 99.8485 82.1406 99.1022 83.1478 96.7783C84.1429 96.5963 84.7557 96.6448 85.6052 96.572C86.1998 96.5234 89.4521 100.067 91.9884 100.571C92.4981 100.674 101.539 111.019 114.16 117.299C115.288 117.857 125.166 121.765 129.244 115.43C130.245 113.877 131.107 107.737 123.989 104.994Z" fill="white"/>
<path d="M121.762 119.295C118.443 119.295 115.239 118.167 114.031 117.566C103.941 112.548 96.0772 104.885 93.1161 102.003C92.5397 101.444 92.0421 100.953 91.8965 100.856C90.24 100.51 88.3712 98.993 87.006 97.8887C86.4417 97.4336 85.8106 96.9179 85.6165 96.8694C85.3252 96.8936 85.0643 96.9058 84.8095 96.9179C84.3483 96.9361 83.9175 96.9543 83.3593 97.0453C82.6676 98.5865 81.7939 99.6059 81.0051 99.7818C80.7017 99.8486 80.4165 99.7818 80.2041 99.5998C79.9917 99.4117 79.8704 99.1569 79.8401 98.8292C79.4214 99.1872 78.8996 99.3207 78.487 99.1447C78.311 99.0719 77.7528 98.7443 77.9591 97.7128C77.9651 97.6703 77.9894 97.5975 78.0319 97.4943C78.0197 97.5125 78.0137 97.5186 78.0076 97.5247C77.4069 98.5016 76.8305 98.4166 76.612 98.3377C76.1448 98.1618 75.8961 97.5489 76.0114 96.839C76.1206 96.1594 77.5647 92.3247 78.3292 91.4024C79.0391 90.5529 81.9941 89.127 83.8629 88.3685C82.3581 87.5251 80.999 87.422 79.5245 87.3916C79.4153 87.4159 79.0573 87.5919 78.7357 87.7496C77.4797 88.3625 75.5866 89.2848 74.5976 88.769C74.3731 88.6537 74.0879 88.4049 74.009 87.8892C73.8391 86.8152 77.9591 85.1223 79.567 84.819C81.3691 84.4792 82.8132 84.7461 84.6457 85.0799C85.2342 85.1891 85.8471 85.2983 86.5206 85.4015C88.2681 85.6624 94.0687 90.2617 96.1075 92.5613C98.7894 95.5769 116.367 101.918 122.144 104.005C123.09 104.345 123.776 104.594 124.092 104.715C127.829 106.153 129.273 108.477 129.826 110.17C130.596 112.542 130.032 114.751 129.492 115.588C127.665 118.428 124.668 119.289 121.756 119.289L121.762 119.295ZM85.6225 96.2687C85.9441 96.2687 86.3871 96.6145 87.3822 97.4215C88.6321 98.4348 90.5252 99.9699 92.0482 100.273C92.2242 100.31 92.4001 100.467 93.5287 101.566C96.4715 104.43 104.287 112.045 114.292 117.026C114.395 117.075 124.826 121.735 128.994 115.26C129.51 114.46 129.935 112.409 129.261 110.346C128.527 108.088 126.664 106.335 123.879 105.261C123.564 105.14 122.884 104.897 121.944 104.551C115.518 102.233 98.4496 96.0745 95.6645 92.9436C93.5894 90.6136 87.9101 86.2024 86.4295 85.9779C85.7439 85.8747 85.1311 85.7655 84.5304 85.6563C82.7586 85.3347 81.357 85.0738 79.6641 85.3954C77.6496 85.7716 74.7371 87.3128 74.5854 87.8042C74.634 88.0834 74.7675 88.1865 74.8585 88.2351C75.5805 88.6113 77.4555 87.7011 78.4627 87.2096C79.0937 86.9002 79.3304 86.7909 79.5003 86.7909H79.5063C81.1749 86.8213 82.8314 86.9548 84.676 88.1744C84.767 88.2351 84.8216 88.3443 84.8095 88.4535C84.7973 88.5627 84.7245 88.6598 84.6214 88.6962C82.4613 89.5032 79.3728 91.0565 78.7721 91.7725C78.0926 92.5916 76.6788 96.3051 76.5817 96.924C76.5089 97.373 76.6424 97.7128 76.8062 97.7734C76.9397 97.822 77.2067 97.6642 77.4979 97.2031C77.4979 97.1909 77.5343 97.1485 77.5889 97.0757C78.5294 95.765 79.0937 94.8609 79.4275 94.2481C79.6338 93.7991 79.7854 93.4715 79.8158 93.4168C80.3497 92.4764 83.42 91.0262 85.3677 91.0262C85.5255 91.0262 85.6529 91.1475 85.665 91.3053C85.6772 91.4631 85.5619 91.5965 85.4041 91.6208C83.6506 91.8453 80.5924 93.2712 80.3619 93.6656C80.2891 93.8659 80.1616 94.145 79.9553 94.5212C79.4396 95.6619 78.5901 97.5975 78.5355 97.822C78.4566 98.2224 78.5234 98.5076 78.7115 98.5865C78.9481 98.6897 79.391 98.5198 79.7005 98.0768C79.8097 97.9191 79.9129 97.7552 80.0221 97.5853C80.4165 96.3961 81.272 95.1158 81.4662 94.952C81.6725 94.7821 81.8849 94.6304 82.1033 94.503C82.4795 94.2542 82.88 94.0782 83.2804 93.9447C84.1663 93.6292 85.034 93.5139 85.75 93.4229C85.9077 93.3986 86.0534 93.5139 86.0837 93.6656C86.108 93.8234 86.0048 93.9751 85.847 94.0054C85.6225 94.0479 85.392 94.0904 85.1553 94.1328C84.5364 94.236 83.869 94.3513 83.238 94.594C83.0074 94.685 82.7768 94.7942 82.5584 94.9277C82.3035 95.0794 82.0608 95.2675 81.8363 95.4981C81.7696 95.5709 81.5754 95.9531 81.4055 96.2929C81.181 96.7419 80.8898 97.3062 80.5742 97.8402C80.4772 98.1375 80.4225 98.4287 80.4286 98.6715C80.4286 98.8899 80.4893 99.0476 80.5985 99.1447C80.6228 99.169 80.6956 99.2297 80.8776 99.1933C81.3388 99.0901 82.1397 98.362 82.88 96.657C82.9224 96.566 83.0013 96.4992 83.0984 96.481C83.7719 96.3597 84.2877 96.3354 84.7852 96.3172C85.04 96.3051 85.301 96.2929 85.5861 96.2687C85.5983 96.2687 85.6104 96.2687 85.6225 96.2687Z" fill="black"/>
<path d="M66.4527 95.8443C66.2222 94.388 67.4964 92.9743 69.3045 92.683C71.1127 92.3978 72.7631 93.3444 72.9937 94.8006C73.2243 96.2569 71.9501 97.6707 70.1419 97.9619C68.3337 98.2471 66.6833 97.3005 66.4527 95.8443Z" fill="black"/>
<path d="M69.5038 98.3079C67.8169 98.3079 66.385 97.3128 66.1605 95.8869C66.0331 95.092 66.294 94.285 66.8947 93.6236C67.4772 92.9744 68.3206 92.5375 69.2611 92.3858C70.2015 92.2341 71.136 92.3919 71.8944 92.8288C72.6711 93.2717 73.1686 93.9573 73.2961 94.7522C73.4235 95.5471 73.1626 96.3541 72.5619 97.0155C71.9794 97.6647 71.136 98.1016 70.1955 98.2533C69.9649 98.2897 69.7343 98.3079 69.5098 98.3079H69.5038ZM69.9528 92.9319C69.7525 92.9319 69.5523 92.9501 69.3521 92.9804C68.5451 93.1079 67.8291 93.478 67.3376 94.0301C66.8582 94.558 66.652 95.1891 66.749 95.8019C66.9553 97.0943 68.4601 97.9317 70.0984 97.6708C70.9054 97.5433 71.6214 97.1732 72.1129 96.621C72.5922 96.0932 72.7985 95.4621 72.7014 94.8493C72.6044 94.2365 72.2099 93.7025 71.591 93.3445C71.1117 93.0715 70.5474 92.9258 69.9528 92.9258V92.9319Z" fill="black"/>
<path d="M92.9411 154.688C92.7773 154.688 92.6499 154.561 92.6438 154.397C92.5771 151.127 92.5588 149.555 92.5406 148.032C92.5224 146.509 92.4982 144.938 92.4375 141.667C92.4375 141.503 92.5649 141.37 92.7287 141.364C92.8926 141.364 93.02 141.491 93.0261 141.655C93.0928 144.925 93.111 146.497 93.1292 148.02C93.1474 149.543 93.1717 151.115 93.2324 154.385C93.2324 154.549 93.1049 154.682 92.9411 154.688Z" fill="black"/>
<path d="M34.5411 187.588C34.5411 187.588 30.0267 185.67 52.3194 160.101C69.4727 140.436 70.3039 140.496 70.3039 140.496L69.9884 134.144C69.9884 134.144 48.6181 154.828 39.6197 167.218C26.0888 185.852 34.5411 187.588 34.5411 187.588Z" fill="black"/>
<path d="M34.5483 187.885C34.5483 187.885 34.5058 187.885 34.4815 187.879C34.4087 187.867 32.7644 187.502 32.0059 185.549C31.0412 183.067 31.5448 177.843 39.3842 167.048C48.2976 154.78 69.577 134.143 69.7893 133.931C69.8743 133.852 69.9956 133.828 70.1048 133.87C70.2141 133.913 70.2869 134.016 70.2929 134.131L70.6085 140.484C70.6085 140.569 70.5781 140.654 70.5174 140.709C70.4871 140.739 70.4507 140.763 70.4082 140.775C70.1898 140.903 68.1147 142.444 52.545 160.295C35.5555 179.778 34.257 185.379 34.4815 186.884C34.5301 187.187 34.6332 187.29 34.6635 187.314C34.8092 187.357 34.882 187.509 34.8456 187.66C34.8152 187.794 34.6818 187.885 34.5422 187.885H34.5483ZM69.7286 134.817C66.537 137.936 48.0064 156.187 39.8635 167.394C32.194 177.952 31.654 182.97 32.552 185.318C32.8979 186.216 33.45 186.72 33.899 186.993C33.5774 184.972 35.6404 178.783 52.096 159.907C60.9608 149.743 65.3842 144.95 67.5321 142.717C69.0187 141.17 69.6801 140.569 70.0017 140.338L69.7286 134.811V134.817ZM70.2869 140.794C70.2869 140.794 70.3172 140.794 70.3293 140.794C70.3172 140.794 70.299 140.794 70.2869 140.794Z" fill="black"/>
<path d="M128.234 89.455C128.234 89.455 152.554 74.0856 154.884 82.7381C152.378 79.0307 129.145 95.5409 129.145 95.5409L128.234 89.4489V89.455Z" fill="black"/>
<path d="M129.146 95.8441C129.11 95.8441 129.067 95.8381 129.031 95.8199C128.934 95.7774 128.867 95.6924 128.855 95.5893L127.945 89.4974C127.927 89.3821 127.981 89.2668 128.078 89.2C128.825 88.7268 146.482 77.6472 152.968 80.1713C154.109 80.6143 154.849 81.4516 155.177 82.6591C155.213 82.7986 155.146 82.9443 155.013 83.0049C154.879 83.0656 154.722 83.0231 154.643 82.9018C154.509 82.7076 154.291 82.5802 153.975 82.5256C149.255 81.6701 129.516 95.6378 129.316 95.7835C129.268 95.8199 129.207 95.8381 129.146 95.8381V95.8441ZM128.558 89.6066L129.365 95.025C132.277 92.9802 149.437 81.1058 154.078 81.9492C154.139 81.9613 154.2 81.9734 154.26 81.9916C153.927 81.4152 153.429 81.0026 152.75 80.7356C146.864 78.436 130.384 88.478 128.558 89.6066Z" fill="black"/>
</svg>
