<svg width="134" height="181" viewBox="0 0 134 181" fill="none" xmlns="http://www.w3.org/2000/svg">
<path d="M45.2122 113.451L36.5022 106.911L34.4922 62.6115L52.9922 88.0115L45.2122 113.451Z" fill="black"/>
<path d="M45.2139 113.941C45.1139 113.941 45.0039 113.911 44.9239 113.841L36.2139 107.311C36.0939 107.221 36.0239 107.091 36.0139 106.941L34.0039 62.6314C34.0039 62.4114 34.1239 62.2214 34.3339 62.1514C34.5339 62.0814 34.7639 62.1514 34.8939 62.3214L53.3939 87.7214C53.4839 87.8414 53.5139 88.0014 53.4639 88.1514L45.6839 113.581C45.6339 113.731 45.5239 113.851 45.3639 113.901C45.3139 113.921 45.2639 113.921 45.2139 113.921V113.941ZM36.9839 106.661L44.9539 112.641L52.4639 88.1114L35.0639 64.2214L36.9839 106.671V106.661Z" fill="black"/>
<path d="M95.2619 77.0014L91.7219 66.7014L50.1719 51.1914L68.6719 76.6014L95.2619 77.0014Z" fill="black"/>
<path d="M95.2635 77.4914L68.6635 77.0914C68.5135 77.0914 68.3635 77.0114 68.2735 76.8914L49.7735 51.4914C49.6435 51.3214 49.6535 51.0814 49.7735 50.9114C49.9035 50.7414 50.1335 50.6714 50.3335 50.7514L91.8835 66.2614C92.0235 66.3114 92.1235 66.4214 92.1735 66.5614L95.7135 76.8514C95.7635 77.0014 95.7435 77.1714 95.6435 77.3014C95.5535 77.4314 95.4035 77.5014 95.2435 77.5014L95.2635 77.4914ZM68.9235 76.1114L94.5735 76.5014L91.3335 67.0814L51.5235 52.2214L68.9235 76.1114Z" fill="black"/>
<path d="M51.9434 93.5015L18.2334 55.0615C4.54341 39.4515 -1.85659 19.6015 1.27341 0.491455L1.37341 0.511456C19.8934 3.86146 36.9934 15.1815 47.3134 32.4315L74.1634 77.3315L51.9434 93.5115V93.5015Z" fill="#6371FB"/>
<path d="M51.945 93.9914C51.805 93.9914 51.675 93.9314 51.575 93.8214L17.865 55.3814C3.89497 39.4514 -2.32503 19.4114 0.784975 0.411409C0.804975 0.281409 0.874972 0.17141 0.984972 0.0914097C1.09497 0.0114097 1.22497 -0.0185883 1.35497 0.0114117L1.45497 0.0314083C20.735 3.52141 37.595 15.2414 47.725 32.1814L74.575 77.0814C74.705 77.3014 74.645 77.5814 74.445 77.7314L52.225 93.9114C52.135 93.9714 52.035 94.0014 51.935 94.0014L51.945 93.9914ZM1.68497 1.06141C-1.19503 19.6314 4.95498 39.1714 18.605 54.7414L52.015 92.8514L73.505 77.2014L46.885 32.6914C36.965 16.1114 20.505 4.61141 1.67497 1.07141L1.68497 1.06141Z" fill="black"/>
<path d="M22.0847 41.6814C19.6747 38.3714 20.4047 33.7314 23.7147 31.3214C27.0247 28.9114 31.6647 29.6414 34.0747 32.9514C36.4847 36.2614 35.7547 40.9014 32.4447 43.3114C29.1347 45.7214 24.4947 44.9914 22.0847 41.6814Z" fill="white"/>
<path d="M28.0863 45.2214C25.6463 45.2214 23.2363 44.0914 21.6863 41.9714C19.1163 38.4514 19.8963 33.4914 23.4263 30.9314C25.1363 29.6914 27.2263 29.1814 29.3063 29.5114C31.3963 29.8414 33.2263 30.9614 34.4663 32.6714C37.0363 36.1914 36.2563 41.1514 32.7263 43.7114C31.3263 44.7314 29.6963 45.2214 28.0863 45.2214ZM28.0663 30.3914C26.6163 30.3914 25.2063 30.8514 24.0063 31.7214C20.9163 33.9714 20.2363 38.3114 22.4863 41.4014C24.7363 44.4914 29.0763 45.1714 32.1663 42.9214C35.2563 40.6714 35.9363 36.3314 33.6863 33.2414C32.5963 31.7414 30.9963 30.7614 29.1663 30.4814C28.8063 30.4214 28.4363 30.3914 28.0763 30.3914H28.0663Z" fill="black"/>
<path d="M72.1725 78.7741L53.6602 92.2538L58.3104 98.6402L76.8227 85.1605L72.1725 78.7741Z" fill="white"/>
<path d="M58.314 99.1214C58.164 99.1214 58.014 99.0514 57.914 98.9214L53.264 92.5314C53.184 92.4314 53.154 92.2914 53.174 92.1714C53.194 92.0414 53.264 91.9314 53.374 91.8514L71.884 78.3714C71.984 78.2914 72.124 78.2614 72.244 78.2814C72.374 78.3014 72.484 78.3714 72.564 78.4814L77.214 84.8714C77.374 85.0914 77.324 85.3914 77.104 85.5514L58.594 99.0314C58.504 99.0914 58.404 99.1214 58.304 99.1214H58.314ZM54.344 92.3514L58.424 97.9514L76.144 85.0414L72.064 79.4414L54.344 92.3514Z" fill="black"/>
<path d="M3.86368 30.5814C3.81368 30.5814 3.76369 30.5614 3.73369 30.5114C3.68369 30.4414 3.69369 30.3414 3.77369 30.2814L28.9637 11.9314C29.0337 11.8814 29.1337 11.8914 29.1937 11.9714C29.2437 12.0414 29.2337 12.1414 29.1537 12.2014L3.96369 30.5514C3.96369 30.5514 3.90368 30.5814 3.86368 30.5814Z" fill="black"/>
<path d="M72.8338 125.951C72.5938 125.951 72.3838 125.771 72.3538 125.531C71.5738 119.681 70.0238 113.961 67.7438 108.521C67.6438 108.271 67.7538 107.981 68.0038 107.881C68.2538 107.771 68.5438 107.891 68.6438 108.141C70.9538 113.661 72.5338 119.461 73.3238 125.401C73.3638 125.671 73.1738 125.911 72.9038 125.951C72.8838 125.951 72.8638 125.951 72.8338 125.951Z" fill="black"/>
<path d="M66.194 105.101C66.034 105.101 65.874 105.021 65.774 104.871L63.654 101.471C63.514 101.241 63.584 100.941 63.814 100.801C64.044 100.661 64.344 100.731 64.484 100.961L66.604 104.361C66.744 104.591 66.674 104.891 66.444 105.031C66.364 105.081 66.274 105.101 66.184 105.101H66.194Z" fill="black"/>
<path d="M74.6339 140.361C74.5039 140.361 74.3839 140.311 74.2839 140.221C73.2139 139.151 72.5539 137.551 72.4139 135.701C72.2939 134.091 72.5439 132.501 72.7839 130.961C72.8239 130.691 73.0839 130.511 73.3439 130.551C73.6139 130.591 73.7939 130.841 73.7539 131.111C73.5139 132.591 73.2739 134.121 73.3939 135.621C73.5139 137.231 74.0839 138.611 74.9839 139.521C75.1739 139.711 75.1739 140.021 74.9839 140.211C74.8839 140.301 74.7639 140.351 74.6339 140.351V140.361Z" fill="black"/>
<path d="M87.1246 108.291C86.9946 108.291 86.8646 108.241 86.7746 108.141C82.5446 103.701 78.6346 98.8915 75.1446 93.8515C74.9946 93.6315 75.0446 93.3215 75.2646 93.1715C75.4846 93.0215 75.7946 93.0715 75.9446 93.2915C79.4046 98.2915 83.2846 103.061 87.4746 107.461C87.6646 107.661 87.6546 107.971 87.4546 108.151C87.3646 108.241 87.2346 108.281 87.1146 108.281L87.1246 108.291Z" fill="black"/>
<path d="M96.2866 113.111C96.2266 113.111 96.1566 113.101 96.0966 113.071L91.6366 111.161C91.3866 111.051 91.2766 110.771 91.3766 110.521C91.4866 110.271 91.7666 110.161 92.0166 110.261L96.4766 112.171C96.7266 112.281 96.8366 112.561 96.7366 112.811C96.6566 113.001 96.4766 113.111 96.2866 113.111Z" fill="black"/>
<path d="M93.0254 180.741C92.6654 180.741 92.2954 180.721 91.9354 180.691C85.5054 180.121 80.0454 174.551 79.3954 168.191C76.5754 171.501 71.8254 173.131 67.5854 172.131C62.8954 171.021 59.0954 166.731 58.5654 161.941C57.8754 155.811 61.9254 150.311 66.4054 145.291C66.5854 145.091 66.8954 145.071 67.0954 145.251C67.2954 145.431 67.3154 145.741 67.1354 145.941C62.8054 150.801 58.8954 156.081 59.5354 161.831C60.0254 166.231 63.5054 170.161 67.8154 171.181C72.1154 172.201 76.9954 170.251 79.4154 166.551C79.5354 166.371 79.7554 166.291 79.9654 166.351C80.1754 166.411 80.3154 166.611 80.3154 166.821C80.2654 173.141 85.7354 179.171 92.0354 179.721C98.3354 180.281 104.775 175.291 105.825 169.061C105.865 168.811 106.085 168.651 106.335 168.651C110.705 168.881 115.085 166.881 117.775 163.431C120.465 159.981 121.335 155.241 120.035 151.061C119.955 150.801 120.095 150.531 120.355 150.451C120.615 150.371 120.885 150.511 120.965 150.771C122.355 155.251 121.425 160.331 118.535 164.031C115.745 167.621 111.235 169.741 106.705 169.641C105.425 175.901 99.3954 180.731 93.0354 180.731L93.0254 180.741Z" fill="black"/>
<path d="M128.106 125.581C127.936 125.581 127.776 125.491 127.676 125.331C127.546 125.101 127.626 124.801 127.856 124.661C131.106 122.801 132.796 118.531 131.716 114.951C130.626 111.371 126.856 108.771 123.116 109.021C122.296 109.081 121.046 109.161 120.526 108.191C120.236 107.641 120.366 107.021 120.456 106.571C121.176 103.191 120.956 100.611 119.806 98.6914C118.266 96.1214 114.836 94.7614 111.466 95.3714C107.826 96.0314 105.066 98.5714 103.396 100.581C103.226 100.791 102.916 100.821 102.706 100.641C102.496 100.471 102.466 100.161 102.646 99.9514C104.426 97.8114 107.366 95.1214 111.296 94.4114C115.056 93.7214 118.906 95.2814 120.656 98.1914C121.946 100.341 122.196 103.141 121.426 106.781C121.356 107.121 121.276 107.501 121.396 107.741C121.606 108.131 122.296 108.111 123.056 108.061C127.226 107.771 131.446 110.681 132.656 114.681C133.866 118.681 131.976 123.441 128.346 125.521C128.266 125.561 128.186 125.581 128.106 125.581Z" fill="black"/>
<path d="M83.5441 121.751C83.3841 121.751 83.2241 121.671 83.1241 121.521C78.7641 114.571 74.5341 107.411 70.5541 100.241C70.4241 100.001 70.5041 99.7114 70.7441 99.5714C70.9841 99.4414 71.2741 99.5215 71.4141 99.7615C75.3841 106.921 79.6041 114.061 83.9541 120.991C84.0941 121.221 84.0241 121.521 83.8041 121.661C83.7241 121.711 83.6341 121.731 83.5441 121.731V121.751Z" fill="black"/>
<path d="M90.664 132.571C90.504 132.571 90.354 132.491 90.254 132.351L86.114 126.161C85.964 125.931 86.024 125.631 86.244 125.481C86.464 125.331 86.774 125.391 86.924 125.611L91.064 131.801C91.214 132.021 91.154 132.331 90.934 132.481C90.854 132.541 90.754 132.561 90.664 132.561V132.571Z" fill="black"/>
</svg>
